<svg width="132" height="36" xmlns="http://www.w3.org/2000/svg" fill="none">

 <mask height="25" width="21" y="11" x="102" maskUnits="userSpaceOnUse" mask-type="alpha" id="mask0">
  <path id="svg_1" fill="white" d="m102.186,11.3607l20.472,0l0,24.3893l-20.472,0l0,-24.3893z" clip-rule="evenodd" fill-rule="evenodd"/>
 </mask>
 <mask height="35" width="34" y="0" x="0" maskUnits="userSpaceOnUse" mask-type="alpha" id="mask1">
  <path id="svg_2" fill="white" d="m0,0.43799l33.7305,0l0,33.98041l-33.7305,0l0,-33.98041z" clip-rule="evenodd" fill-rule="evenodd"/>
 </mask>
 <g>
  <title>Layer 1</title>
  <g fill="#396849" stroke="null" id="svg_7" mask="url(#mask1)">
   <path stroke="null" id="svg_8" fill="#1f9645" d="m17.30934,1.77059c-9.06876,0 -16.42101,7.36563 -16.42101,16.45093c0,8.05491 5.78599,14.74774 13.41769,16.16397c-1.12008,-2.67715 -2.20025,-6.03182 -2.76389,-9.99336c-0.3992,-2.79953 -0.46024,-5.33076 -0.36862,-7.49031c0.20894,1.23265 0.57299,2.75234 1.22573,4.42026c0.64816,1.65615 1.40663,3.01118 2.08526,4.05332c0,-2.05137 0.28177,-5.24602 1.83864,-8.72065c0.73024,-1.63028 1.58033,-2.96408 2.36937,-4.01095c-0.58945,2.05368 -1.13897,4.70497 -1.26574,7.8173c-0.08919,2.12896 0.03525,4.0345 0.24419,5.65069c0.68808,-0.5811 1.54051,-1.42327 2.32945,-2.57832c1.0567,-1.55028 1.57332,-3.03241 1.83864,-4.05332c0.03057,2.26302 -0.1221,5.06959 -0.73501,8.22892c-0.51418,2.6372 -1.23517,4.93554 -1.97952,6.85748c8.21408,-0.90567 14.60588,-7.87607 14.60588,-16.34502c0,-9.0853 -7.35221,-16.45093 -16.42106,-16.45093" clip-rule="evenodd" fill-rule="evenodd"/>
  </g>
  <text xml:space="preserve" text-anchor="start" font-family="'Cabin'" font-size="24" stroke-width="0" id="svg_9" y="27.11109" x="35.24055" fill="#1f9645">CropPred</text>
 </g>
</svg>